# xmcd CD database file
#
# Track frame offsets:
#	150
#	22325
#	44975
#	67540
#	85122
#	116750
#	140737
#	168025
#	189380
#	209225
#
# Disc length: 3133 seconds
#
# Revision: 1
# Processed by: cddbd v1.4PL0 Copyright (c) Steve Scherf et al.
# Submitted via: CDex 1.40Beta8
#
DISCID=940c3b0a
DTITLE=Ronny Jordan - The Quiet Revolution
DYEAR=1993
DGENRE=Acid Jazz
TTITLE0=Season For Change
TTITLE1=In Full Swing
TTITLE2=Slam In A Jam
TTITLE3=Mr Walker
TTITLE4=The Jackal
TTITLE5=Come With Me
TTITLE6=The Morning After
TTITLE7=Under Your Spell
TTITLE8=Tinsel Town
TTITLE9=Vanston Palce (00 AM)
EXTD=YEAR: 1993 ID3G: 74
EXTT0=
EXTT1=
EXTT2=
EXTT3=
EXTT4=
EXTT5=
EXTT6=
EXTT7=
EXTT8=
EXTT9=
PLAYORDER=
